<?plantuml 1.2026.2beta3?><svg xmlns="http://www.w3.org/2000/svg" xmlns:xlink="http://www.w3.org/1999/xlink" contentStyleType="text/css" data-diagram-type="ACTIVITY" height="681px" preserveAspectRatio="none" style="width:424px;height:681px;background:#FFFFFF;" version="1.1" viewBox="0 0 424 681" width="424px" zoomAndPan="magnify"><title>Activity - Professor Submit Grades</title><defs/><g><g class="title" data-source-line="1"><text fill="#000000" font-family="sans-serif" font-size="14" font-weight="bold" lengthAdjust="spacing" textLength="231.8408" x="95.0015" y="34.5332">Activity - Professor Submit Grades</text></g><ellipse cx="183.0752" cy="58.6094" fill="#222222" rx="10" ry="10" style="stroke:#222222;stroke-width:1;"/><rect fill="#F1F1F1" height="35.0938" rx="12.5" ry="12.5" style="stroke:#181818;stroke-width:0.5;" width="196.7363" x="84.707" y="88.6094"/><text fill="#000000" font-family="sans-serif" font-size="12" lengthAdjust="spacing" textLength="176.7363" x="94.707" y="111.0664">Professor selects CourseOffering</text><rect fill="#F1F1F1" height="35.0938" rx="12.5" ry="12.5" style="stroke:#181818;stroke-width:0.5;" width="223.1035" x="71.5234" y="143.7031"/><text fill="#000000" font-family="sans-serif" font-size="12" lengthAdjust="spacing" textLength="203.1035" x="81.5234" y="166.1602">Load roster (Registrations + Students)</text><rect fill="#F1F1F1" height="35.0938" rx="12.5" ry="12.5" style="stroke:#181818;stroke-width:0.5;" width="168.752" x="98.6992" y="198.7969"/><text fill="#000000" font-family="sans-serif" font-size="12" lengthAdjust="spacing" textLength="148.752" x="108.6992" y="221.2539">Select a student registration</text><rect fill="#F1F1F1" height="35.0938" rx="12.5" ry="12.5" style="stroke:#181818;stroke-width:0.5;" width="185.3984" x="90.376" y="253.8906"/><text fill="#000000" font-family="sans-serif" font-size="12" lengthAdjust="spacing" textLength="165.3984" x="100.376" y="276.3477">Enter midterm/final/assignment</text><polygon fill="#F1F1F1" points="107.8745,308.9844,258.2759,308.9844,270.2759,320.9844,258.2759,332.9844,107.8745,332.9844,95.8745,320.9844,107.8745,308.9844" style="stroke:#181818;stroke-width:0.5;"/><text fill="#000000" font-family="sans-serif" font-size="11" lengthAdjust="spacing" textLength="150.4014" x="107.8745" y="325.4854">Grade exists for registrationId?</text><text fill="#000000" font-family="sans-serif" font-size="11" lengthAdjust="spacing" textLength="18.9546" x="76.9199" y="318.5674">Yes</text><text fill="#000000" font-family="sans-serif" font-size="11" lengthAdjust="spacing" textLength="14.0615" x="270.2759" y="318.5674">No</text><rect fill="#F1F1F1" height="35.0938" rx="12.5" ry="12.5" style="stroke:#181818;stroke-width:0.5;" width="132.7285" x="11" y="342.9844"/><text fill="#000000" font-family="sans-serif" font-size="12" lengthAdjust="spacing" textLength="112.7285" x="21" y="365.4414">Update Grade record</text><rect fill="#F1F1F1" height="35.0938" rx="12.5" ry="12.5" style="stroke:#181818;stroke-width:0.5;" width="250.1152" x="163.7285" y="342.9844"/><text fill="#000000" font-family="sans-serif" font-size="12" lengthAdjust="spacing" textLength="230.1152" x="173.7285" y="365.4414">Create Grade record (registrationId unique)</text><polygon fill="#F1F1F1" points="183.0752,384.0781,195.0752,396.0781,183.0752,408.0781,171.0752,396.0781,183.0752,384.0781" style="stroke:#181818;stroke-width:0.5;"/><rect fill="#F1F1F1" height="35.0938" rx="12.5" ry="12.5" style="stroke:#181818;stroke-width:0.5;" width="128.0586" x="119.0459" y="428.0781"/><text fill="#000000" font-family="sans-serif" font-size="12" lengthAdjust="spacing" textLength="108.0586" x="129.0459" y="450.5352">Compute totalGrade</text><rect fill="#F1F1F1" height="35.0938" rx="12.5" ry="12.5" style="stroke:#181818;stroke-width:0.5;" width="191.7676" x="87.1914" y="483.1719"/><text fill="#000000" font-family="sans-serif" font-size="12" lengthAdjust="spacing" textLength="171.7676" x="97.1914" y="505.6289">Map to letterGrade + gradePoint</text><rect fill="#F1F1F1" height="35.0938" rx="12.5" ry="12.5" style="stroke:#181818;stroke-width:0.5;" width="47.3516" x="159.3994" y="538.2656"/><text fill="#000000" font-family="sans-serif" font-size="12" lengthAdjust="spacing" textLength="27.3516" x="169.3994" y="560.7227">Save</text><rect fill="#F1F1F1" height="35.0938" rx="12.5" ry="12.5" style="stroke:#181818;stroke-width:0.5;" width="96.6992" x="134.7256" y="593.3594"/><text fill="#000000" font-family="sans-serif" font-size="12" lengthAdjust="spacing" textLength="76.6992" x="144.7256" y="615.8164">Show success</text><ellipse cx="183.0752" cy="659.4531" fill="none" rx="11" ry="11" style="stroke:#222222;stroke-width:1;"/><ellipse cx="183.0752" cy="659.4531" fill="#222222" rx="6" ry="6" style="stroke:#222222;stroke-width:1;"/><line style="stroke:#181818;stroke-width:1;" x1="183.0752" x2="183.0752" y1="68.6094" y2="88.6094"/><polygon fill="#181818" points="179.0752,78.6094,183.0752,88.6094,187.0752,78.6094,183.0752,82.6094" style="stroke:#181818;stroke-width:1;"/><line style="stroke:#181818;stroke-width:1;" x1="183.0752" x2="183.0752" y1="123.7031" y2="143.7031"/><polygon fill="#181818" points="179.0752,133.7031,183.0752,143.7031,187.0752,133.7031,183.0752,137.7031" style="stroke:#181818;stroke-width:1;"/><line style="stroke:#181818;stroke-width:1;" x1="183.0752" x2="183.0752" y1="178.7969" y2="198.7969"/><polygon fill="#181818" points="179.0752,188.7969,183.0752,198.7969,187.0752,188.7969,183.0752,192.7969" style="stroke:#181818;stroke-width:1;"/><line style="stroke:#181818;stroke-width:1;" x1="183.0752" x2="183.0752" y1="233.8906" y2="253.8906"/><polygon fill="#181818" points="179.0752,243.8906,183.0752,253.8906,187.0752,243.8906,183.0752,247.8906" style="stroke:#181818;stroke-width:1;"/><line style="stroke:#181818;stroke-width:1;" x1="95.8745" x2="77.3643" y1="320.9844" y2="320.9844"/><line style="stroke:#181818;stroke-width:1;" x1="77.3643" x2="77.3643" y1="320.9844" y2="342.9844"/><polygon fill="#181818" points="73.3643,332.9844,77.3643,342.9844,81.3643,332.9844,77.3643,336.9844" style="stroke:#181818;stroke-width:1;"/><line style="stroke:#181818;stroke-width:1;" x1="270.2759" x2="288.7861" y1="320.9844" y2="320.9844"/><line style="stroke:#181818;stroke-width:1;" x1="288.7861" x2="288.7861" y1="320.9844" y2="342.9844"/><polygon fill="#181818" points="284.7861,332.9844,288.7861,342.9844,292.7861,332.9844,288.7861,336.9844" style="stroke:#181818;stroke-width:1;"/><line style="stroke:#181818;stroke-width:1;" x1="77.3643" x2="77.3643" y1="378.0781" y2="396.0781"/><line style="stroke:#181818;stroke-width:1;" x1="77.3643" x2="171.0752" y1="396.0781" y2="396.0781"/><polygon fill="#181818" points="161.0752,392.0781,171.0752,396.0781,161.0752,400.0781,165.0752,396.0781" style="stroke:#181818;stroke-width:1;"/><line style="stroke:#181818;stroke-width:1;" x1="288.7861" x2="288.7861" y1="378.0781" y2="396.0781"/><line style="stroke:#181818;stroke-width:1;" x1="288.7861" x2="195.0752" y1="396.0781" y2="396.0781"/><polygon fill="#181818" points="205.0752,392.0781,195.0752,396.0781,205.0752,400.0781,201.0752,396.0781" style="stroke:#181818;stroke-width:1;"/><line style="stroke:#181818;stroke-width:1;" x1="183.0752" x2="183.0752" y1="288.9844" y2="308.9844"/><polygon fill="#181818" points="179.0752,298.9844,183.0752,308.9844,187.0752,298.9844,183.0752,302.9844" style="stroke:#181818;stroke-width:1;"/><line style="stroke:#181818;stroke-width:1;" x1="183.0752" x2="183.0752" y1="408.0781" y2="428.0781"/><polygon fill="#181818" points="179.0752,418.0781,183.0752,428.0781,187.0752,418.0781,183.0752,422.0781" style="stroke:#181818;stroke-width:1;"/><line style="stroke:#181818;stroke-width:1;" x1="183.0752" x2="183.0752" y1="463.1719" y2="483.1719"/><polygon fill="#181818" points="179.0752,473.1719,183.0752,483.1719,187.0752,473.1719,183.0752,477.1719" style="stroke:#181818;stroke-width:1;"/><line style="stroke:#181818;stroke-width:1;" x1="183.0752" x2="183.0752" y1="518.2656" y2="538.2656"/><polygon fill="#181818" points="179.0752,528.2656,183.0752,538.2656,187.0752,528.2656,183.0752,532.2656" style="stroke:#181818;stroke-width:1;"/><line style="stroke:#181818;stroke-width:1;" x1="183.0752" x2="183.0752" y1="573.3594" y2="593.3594"/><polygon fill="#181818" points="179.0752,583.3594,183.0752,593.3594,187.0752,583.3594,183.0752,587.3594" style="stroke:#181818;stroke-width:1;"/><line style="stroke:#181818;stroke-width:1;" x1="183.0752" x2="183.0752" y1="628.4531" y2="648.4531"/><polygon fill="#181818" points="179.0752,638.4531,183.0752,648.4531,187.0752,638.4531,183.0752,642.4531" style="stroke:#181818;stroke-width:1;"/><?plantuml-src NP1FIyH03CNlyoboR5bax-r1f8W8_bai7ZoEdKmtq4xg9BFgjpVj7bmz1PBtVkGz9PqGRWQb4-atNC4XSqGHpj2NzvaKxh8FACw9-gok-RqBJZYeGCSb2px7Y9dIsBhcWNs0pAAOeNh1aKIpL-8ai8DUIy2aKhVEDVs600zotaA-K1lfDgsCcOADUHyf-MdlHMXCiwcDG16gxK70BpCAH7li4d8VhclG8oQetb1g1z2yBi4hddEPTk0SMeUJ85HFl2cwZFyLKFsbGadqKT1IO0eKBKl7yrBCfQn-sgmMuD4lje09rHASUJiOrtbWMXCqlJ_XLiMHFq7AC5YvhPNDomy0?></g></svg>