<?plantuml 1.2026.2beta3?><svg xmlns="http://www.w3.org/2000/svg" xmlns:xlink="http://www.w3.org/1999/xlink" contentStyleType="text/css" data-diagram-type="ACTIVITY" height="1042px" preserveAspectRatio="none" style="width:695px;height:1042px;background:#FFFFFF;" version="1.1" viewBox="0 0 695 1042" width="695px" zoomAndPan="magnify"><title>Activity - Student Course Registration</title><defs/><g><g class="title" data-source-line="1"><text fill="#000000" font-family="sans-serif" font-size="14" font-weight="bold" lengthAdjust="spacing" textLength="252.8066" x="219.9033" y="34.5332">Activity - Student Course Registration</text></g><ellipse cx="415.3091" cy="58.6094" fill="#222222" rx="10" ry="10" style="stroke:#222222;stroke-width:1;"/><rect fill="#F1F1F1" height="35.0938" rx="12.5" ry="12.5" style="stroke:#181818;stroke-width:0.5;" width="194.791" x="317.9136" y="88.6094"/><text fill="#000000" font-family="sans-serif" font-size="12" lengthAdjust="spacing" textLength="174.791" x="327.9136" y="111.0664">Student opens Registration page</text><rect fill="#F1F1F1" height="35.0938" rx="12.5" ry="12.5" style="stroke:#181818;stroke-width:0.5;" width="198.4238" x="316.0972" y="143.7031"/><text fill="#000000" font-family="sans-serif" font-size="12" lengthAdjust="spacing" textLength="178.4238" x="326.0972" y="166.1602">Load active Semester + Offerings</text><polygon fill="#F1F1F1" points="348.3638,198.7969,482.2544,198.7969,494.2544,210.7969,482.2544,222.7969,348.3638,222.7969,336.3638,210.7969,348.3638,198.7969" style="stroke:#181818;stroke-width:0.5;"/><text fill="#000000" font-family="sans-serif" font-size="11" lengthAdjust="spacing" textLength="133.8906" x="348.3638" y="215.2979">Within registration window?</text><text fill="#000000" font-family="sans-serif" font-size="11" lengthAdjust="spacing" textLength="18.9546" x="317.4092" y="208.3799">Yes</text><text fill="#000000" font-family="sans-serif" font-size="11" lengthAdjust="spacing" textLength="14.0615" x="494.2544" y="208.3799">No</text><rect fill="#F1F1F1" height="35.0938" rx="12.5" ry="12.5" style="stroke:#181818;stroke-width:0.5;" width="186.752" x="148.9258" y="232.7969"/><text fill="#000000" font-family="sans-serif" font-size="12" lengthAdjust="spacing" textLength="166.752" x="158.9258" y="255.2539">Student selects CourseOffering</text><rect fill="#F1F1F1" height="35.0938" rx="12.5" ry="12.5" style="stroke:#181818;stroke-width:0.5;" width="224.7793" x="129.9121" y="287.8906"/><text fill="#000000" font-family="sans-serif" font-size="12" lengthAdjust="spacing" textLength="204.7793" x="139.9121" y="310.3477">Load Student profile (programId, level)</text><rect fill="#F1F1F1" height="35.0938" rx="12.5" ry="12.5" style="stroke:#181818;stroke-width:0.5;" width="171.0898" x="156.7568" y="342.9844"/><text fill="#000000" font-family="sans-serif" font-size="12" lengthAdjust="spacing" textLength="151.0898" x="166.7568" y="365.4414">Load Course + prerequisites</text><rect fill="#F1F1F1" height="35.0938" rx="12.5" ry="12.5" style="stroke:#181818;stroke-width:0.5;" width="187.9238" x="148.3398" y="446.9961"/><text fill="#000000" font-family="sans-serif" font-size="12" lengthAdjust="spacing" textLength="167.9238" x="158.3398" y="469.4531">Show error "Already registered"</text><ellipse cx="242.3018" cy="521.043" fill="none" rx="11" ry="11" style="stroke:#222222;stroke-width:1;"/><ellipse cx="242.3018" cy="521.043" fill="#222222" rx="6" ry="6" style="stroke:#222222;stroke-width:1;"/><polygon fill="#F1F1F1" points="194.6091,398.0781,289.9944,398.0781,301.9944,410.0781,289.9944,422.0781,194.6091,422.0781,182.6091,410.0781,194.6091,398.0781" style="stroke:#181818;stroke-width:0.5;"/><text fill="#000000" font-family="sans-serif" font-size="11" lengthAdjust="spacing" textLength="18.9546" x="246.3018" y="433.4971">Yes</text><text fill="#000000" font-family="sans-serif" font-size="11" lengthAdjust="spacing" textLength="95.3853" x="194.6091" y="414.5791">Already registered?</text><rect fill="#F1F1F1" height="35.0938" rx="12.5" ry="12.5" style="stroke:#181818;stroke-width:0.5;" width="139.2207" x="172.6914" y="622.9609"/><text fill="#000000" font-family="sans-serif" font-size="12" lengthAdjust="spacing" textLength="119.2207" x="182.6914" y="645.418">Show error "Class full"</text><ellipse cx="242.3018" cy="697.0078" fill="none" rx="11" ry="11" style="stroke:#222222;stroke-width:1;"/><ellipse cx="242.3018" cy="697.0078" fill="#222222" rx="6" ry="6" style="stroke:#222222;stroke-width:1;"/><polygon fill="#F1F1F1" points="194.6064,574.043,289.9971,574.043,301.9971,586.043,289.9971,598.043,194.6064,598.043,182.6064,586.043,194.6064,574.043" style="stroke:#181818;stroke-width:0.5;"/><text fill="#000000" font-family="sans-serif" font-size="11" lengthAdjust="spacing" textLength="14.0615" x="246.3018" y="609.4619">No</text><text fill="#000000" font-family="sans-serif" font-size="11" lengthAdjust="spacing" textLength="95.3906" x="194.6064" y="590.5439">Capacity available?</text><text fill="#000000" font-family="sans-serif" font-size="11" lengthAdjust="spacing" textLength="18.9546" x="301.9971" y="583.626">Yes</text><polygon fill="#F1F1F1" points="185.4407,750.0078,299.1628,750.0078,311.1628,762.0078,299.1628,774.0078,185.4407,774.0078,173.4407,762.0078,185.4407,750.0078" style="stroke:#181818;stroke-width:0.5;"/><text fill="#000000" font-family="sans-serif" font-size="11" lengthAdjust="spacing" textLength="113.7222" x="185.4407" y="766.5088">Prerequisites satisfied?</text><text fill="#000000" font-family="sans-serif" font-size="11" lengthAdjust="spacing" textLength="18.9546" x="154.4861" y="759.5908">Yes</text><text fill="#000000" font-family="sans-serif" font-size="11" lengthAdjust="spacing" textLength="14.0615" x="311.1628" y="759.5908">No</text><rect fill="#F1F1F1" height="35.0938" rx="12.5" ry="12.5" style="stroke:#181818;stroke-width:0.5;" width="227.0938" x="11" y="784.0078"/><text fill="#000000" font-family="sans-serif" font-size="12" lengthAdjust="spacing" textLength="207.0938" x="21" y="806.4648">Create Registration (status=registered)</text><rect fill="#F1F1F1" height="35.0938" rx="12.5" ry="12.5" style="stroke:#181818;stroke-width:0.5;" width="151.4082" x="48.8428" y="839.1016"/><text fill="#000000" font-family="sans-serif" font-size="12" lengthAdjust="spacing" textLength="131.4082" x="58.8428" y="861.5586">Increment enrolledCount</text><rect fill="#F1F1F1" height="35.0938" rx="12.5" ry="12.5" style="stroke:#181818;stroke-width:0.5;" width="118.7129" x="65.1904" y="894.1953"/><text fill="#000000" font-family="sans-serif" font-size="12" lengthAdjust="spacing" textLength="98.7129" x="75.1904" y="916.6523">Show confirmation</text><rect fill="#F1F1F1" height="35.0938" rx="12.5" ry="12.5" style="stroke:#181818;stroke-width:0.5;" width="203.9258" x="258.0938" y="784.0078"/><text fill="#000000" font-family="sans-serif" font-size="12" lengthAdjust="spacing" textLength="183.9258" x="268.0938" y="806.4648">Show error "Prerequisites not met"</text><polygon fill="#F1F1F1" points="242.3018,935.2891,254.3018,947.2891,242.3018,959.2891,230.3018,947.2891,242.3018,935.2891" style="stroke:#181818;stroke-width:0.5;"/><rect fill="#F1F1F1" height="35.0938" rx="12.5" ry="12.5" style="stroke:#181818;stroke-width:0.5;" width="192.5938" x="492.0195" y="232.7969"/><text fill="#000000" font-family="sans-serif" font-size="12" lengthAdjust="spacing" textLength="172.5938" x="502.0195" y="255.2539">Show error "Registration closed"</text><polygon fill="#F1F1F1" points="415.3091,965.2891,427.3091,977.2891,415.3091,989.2891,403.3091,977.2891,415.3091,965.2891" style="stroke:#181818;stroke-width:0.5;"/><ellipse cx="415.3091" cy="1020.2891" fill="none" rx="11" ry="11" style="stroke:#222222;stroke-width:1;"/><ellipse cx="415.3091" cy="1020.2891" fill="#222222" rx="6" ry="6" style="stroke:#222222;stroke-width:1;"/><line style="stroke:#181818;stroke-width:1;" x1="415.3091" x2="415.3091" y1="68.6094" y2="88.6094"/><polygon fill="#181818" points="411.3091,78.6094,415.3091,88.6094,419.3091,78.6094,415.3091,82.6094" style="stroke:#181818;stroke-width:1;"/><line style="stroke:#181818;stroke-width:1;" x1="415.3091" x2="415.3091" y1="123.7031" y2="143.7031"/><polygon fill="#181818" points="411.3091,133.7031,415.3091,143.7031,419.3091,133.7031,415.3091,137.7031" style="stroke:#181818;stroke-width:1;"/><line style="stroke:#181818;stroke-width:1;" x1="242.3018" x2="242.3018" y1="267.8906" y2="287.8906"/><polygon fill="#181818" points="238.3018,277.8906,242.3018,287.8906,246.3018,277.8906,242.3018,281.8906" style="stroke:#181818;stroke-width:1;"/><line style="stroke:#181818;stroke-width:1;" x1="242.3018" x2="242.3018" y1="322.9844" y2="342.9844"/><polygon fill="#181818" points="238.3018,332.9844,242.3018,342.9844,246.3018,332.9844,242.3018,336.9844" style="stroke:#181818;stroke-width:1;"/><line style="stroke:#181818;stroke-width:1;" x1="242.3018" x2="242.3018" y1="482.0898" y2="510.043"/><polygon fill="#181818" points="238.3018,500.043,242.3018,510.043,246.3018,500.043,242.3018,504.043" style="stroke:#181818;stroke-width:1;"/><line style="stroke:#181818;stroke-width:1;" x1="242.3018" x2="242.3018" y1="422.0781" y2="446.9961"/><polygon fill="#181818" points="238.3018,436.9961,242.3018,446.9961,246.3018,436.9961,242.3018,440.9961" style="stroke:#181818;stroke-width:1;"/><line style="stroke:#181818;stroke-width:1;" x1="301.9944" x2="346.2637" y1="410.0781" y2="410.0781"/><polygon fill="#181818" points="342.2637,480.043,346.2637,490.043,350.2637,480.043,346.2637,484.043" style="stroke:#181818;stroke-width:1;"/><line style="stroke:#181818;stroke-width:1;" x1="346.2637" x2="346.2637" y1="410.0781" y2="554.043"/><line style="stroke:#181818;stroke-width:1;" x1="346.2637" x2="242.3018" y1="554.043" y2="554.043"/><line style="stroke:#181818;stroke-width:1;" x1="242.3018" x2="242.3018" y1="554.043" y2="574.043"/><polygon fill="#181818" points="238.3018,564.043,242.3018,574.043,246.3018,564.043,242.3018,568.043" style="stroke:#181818;stroke-width:1;"/><line style="stroke:#181818;stroke-width:1;" x1="242.3018" x2="242.3018" y1="378.0781" y2="398.0781"/><polygon fill="#181818" points="238.3018,388.0781,242.3018,398.0781,246.3018,388.0781,242.3018,392.0781" style="stroke:#181818;stroke-width:1;"/><line style="stroke:#181818;stroke-width:1;" x1="242.3018" x2="242.3018" y1="658.0547" y2="686.0078"/><polygon fill="#181818" points="238.3018,676.0078,242.3018,686.0078,246.3018,676.0078,242.3018,680.0078" style="stroke:#181818;stroke-width:1;"/><line style="stroke:#181818;stroke-width:1;" x1="242.3018" x2="242.3018" y1="598.043" y2="622.9609"/><polygon fill="#181818" points="238.3018,612.9609,242.3018,622.9609,246.3018,612.9609,242.3018,616.9609" style="stroke:#181818;stroke-width:1;"/><line style="stroke:#181818;stroke-width:1;" x1="301.9971" x2="321.9121" y1="586.043" y2="586.043"/><polygon fill="#181818" points="317.9121,656.0078,321.9121,666.0078,325.9121,656.0078,321.9121,660.0078" style="stroke:#181818;stroke-width:1;"/><line style="stroke:#181818;stroke-width:1;" x1="321.9121" x2="321.9121" y1="586.043" y2="730.0078"/><line style="stroke:#181818;stroke-width:1;" x1="321.9121" x2="242.3018" y1="730.0078" y2="730.0078"/><line style="stroke:#181818;stroke-width:1;" x1="242.3018" x2="242.3018" y1="730.0078" y2="750.0078"/><polygon fill="#181818" points="238.3018,740.0078,242.3018,750.0078,246.3018,740.0078,242.3018,744.0078" style="stroke:#181818;stroke-width:1;"/><line style="stroke:#181818;stroke-width:1;" x1="124.5469" x2="124.5469" y1="819.1016" y2="839.1016"/><polygon fill="#181818" points="120.5469,829.1016,124.5469,839.1016,128.5469,829.1016,124.5469,833.1016" style="stroke:#181818;stroke-width:1;"/><line style="stroke:#181818;stroke-width:1;" x1="124.5469" x2="124.5469" y1="874.1953" y2="894.1953"/><polygon fill="#181818" points="120.5469,884.1953,124.5469,894.1953,128.5469,884.1953,124.5469,888.1953" style="stroke:#181818;stroke-width:1;"/><line style="stroke:#181818;stroke-width:1;" x1="173.4407" x2="124.5469" y1="762.0078" y2="762.0078"/><line style="stroke:#181818;stroke-width:1;" x1="124.5469" x2="124.5469" y1="762.0078" y2="784.0078"/><polygon fill="#181818" points="120.5469,774.0078,124.5469,784.0078,128.5469,774.0078,124.5469,778.0078" style="stroke:#181818;stroke-width:1;"/><line style="stroke:#181818;stroke-width:1;" x1="311.1628" x2="360.0566" y1="762.0078" y2="762.0078"/><line style="stroke:#181818;stroke-width:1;" x1="360.0566" x2="360.0566" y1="762.0078" y2="784.0078"/><polygon fill="#181818" points="356.0566,774.0078,360.0566,784.0078,364.0566,774.0078,360.0566,778.0078" style="stroke:#181818;stroke-width:1;"/><line style="stroke:#181818;stroke-width:1;" x1="124.5469" x2="124.5469" y1="929.2891" y2="947.2891"/><line style="stroke:#181818;stroke-width:1;" x1="124.5469" x2="230.3018" y1="947.2891" y2="947.2891"/><polygon fill="#181818" points="220.3018,943.2891,230.3018,947.2891,220.3018,951.2891,224.3018,947.2891" style="stroke:#181818;stroke-width:1;"/><line style="stroke:#181818;stroke-width:1;" x1="360.0566" x2="360.0566" y1="819.1016" y2="947.2891"/><line style="stroke:#181818;stroke-width:1;" x1="360.0566" x2="254.3018" y1="947.2891" y2="947.2891"/><polygon fill="#181818" points="264.3018,943.2891,254.3018,947.2891,264.3018,951.2891,260.3018,947.2891" style="stroke:#181818;stroke-width:1;"/><line style="stroke:#181818;stroke-width:1;" x1="336.3638" x2="242.3018" y1="210.7969" y2="210.7969"/><line style="stroke:#181818;stroke-width:1;" x1="242.3018" x2="242.3018" y1="210.7969" y2="232.7969"/><polygon fill="#181818" points="238.3018,222.7969,242.3018,232.7969,246.3018,222.7969,242.3018,226.7969" style="stroke:#181818;stroke-width:1;"/><line style="stroke:#181818;stroke-width:1;" x1="494.2544" x2="588.3164" y1="210.7969" y2="210.7969"/><line style="stroke:#181818;stroke-width:1;" x1="588.3164" x2="588.3164" y1="210.7969" y2="232.7969"/><polygon fill="#181818" points="584.3164,222.7969,588.3164,232.7969,592.3164,222.7969,588.3164,226.7969" style="stroke:#181818;stroke-width:1;"/><line style="stroke:#181818;stroke-width:1;" x1="242.3018" x2="242.3018" y1="959.2891" y2="977.2891"/><line style="stroke:#181818;stroke-width:1;" x1="242.3018" x2="403.3091" y1="977.2891" y2="977.2891"/><polygon fill="#181818" points="393.3091,973.2891,403.3091,977.2891,393.3091,981.2891,397.3091,977.2891" style="stroke:#181818;stroke-width:1;"/><line style="stroke:#181818;stroke-width:1;" x1="588.3164" x2="588.3164" y1="267.8906" y2="977.2891"/><line style="stroke:#181818;stroke-width:1;" x1="588.3164" x2="427.3091" y1="977.2891" y2="977.2891"/><polygon fill="#181818" points="437.3091,973.2891,427.3091,977.2891,437.3091,981.2891,433.3091,977.2891" style="stroke:#181818;stroke-width:1;"/><line style="stroke:#181818;stroke-width:1;" x1="415.3091" x2="415.3091" y1="178.7969" y2="198.7969"/><polygon fill="#181818" points="411.3091,188.7969,415.3091,198.7969,419.3091,188.7969,415.3091,192.7969" style="stroke:#181818;stroke-width:1;"/><line style="stroke:#181818;stroke-width:1;" x1="415.3091" x2="415.3091" y1="989.2891" y2="1009.2891"/><polygon fill="#181818" points="411.3091,999.2891,415.3091,1009.2891,419.3091,999.2891,415.3091,1003.2891" style="stroke:#181818;stroke-width:1;"/><?plantuml-src VP71JiD034Jl-GghfqI57sY4K9LJ9GI87X379UkabZQxmNPQzU_Pf4r9IjMR3-Fncx6IEeHrgRGdFS8ZRBMpw1MAqB4WV61DecoKWayIKSEQh4PDQD7BJ0AjgJ5FLY_1M32zAy8M6nH5XYMyLHKo-Lho9A4Aqa_I7NdWgSE1l0s7vmnqXnxIBvGi0RZS57HOgfpvHiFe5pN3rL7OSgWePalZKBDfDlO17ExHPVb5UmwvZ69a_Eb8I546invlxHYDFPxvei9UO_LWkt00P0uCY_yBYtnGYOOs3kWjLQDxOLfJzgMRlI5dlXrUkwEBSEbhk76fS4O4giwvEnVUfwb0OhzIqSqGHUJM-RSXZT_MJfx-mcIdKwkDBpa-DPQCdeDpQ6EHNlC9PXbyHTmCJldzA7DA7nGQr27LASnqTROueorTaA7kSmDz7xy0?></g></svg>