<?plantuml 1.2026.2beta3?><svg xmlns="http://www.w3.org/2000/svg" xmlns:xlink="http://www.w3.org/1999/xlink" contentStyleType="text/css" data-diagram-type="ACTIVITY" height="469px" preserveAspectRatio="none" style="width:562px;height:469px;background:#FFFFFF;" version="1.1" viewBox="0 0 562 469" width="562px" zoomAndPan="magnify"><title>Activity - Authentication &amp; Access</title><defs/><g><g class="title" data-source-line="1"><text fill="#000000" font-family="sans-serif" font-size="14" font-weight="bold" lengthAdjust="spacing" textLength="227.9375" x="165.834" y="34.5332">Activity - Authentication &amp; Access</text></g><ellipse cx="332.7629" cy="58.6094" fill="#222222" rx="10" ry="10" style="stroke:#222222;stroke-width:1;"/><rect fill="#F1F1F1" height="35.0938" rx="12.5" ry="12.5" style="stroke:#181818;stroke-width:0.5;" width="168.7227" x="248.4016" y="88.6094"/><text fill="#000000" font-family="sans-serif" font-size="12" lengthAdjust="spacing" textLength="148.7227" x="258.4016" y="111.0664">User enters email/password</text><polygon fill="#F1F1F1" points="289.0449,143.7031,376.481,143.7031,388.481,155.7031,376.481,167.7031,289.0449,167.7031,277.0449,155.7031,289.0449,143.7031" style="stroke:#181818;stroke-width:0.5;"/><text fill="#000000" font-family="sans-serif" font-size="11" lengthAdjust="spacing" textLength="87.436" x="289.0449" y="160.2041">Credentials valid?</text><text fill="#000000" font-family="sans-serif" font-size="11" lengthAdjust="spacing" textLength="18.9546" x="258.0903" y="153.2861">Yes</text><text fill="#000000" font-family="sans-serif" font-size="11" lengthAdjust="spacing" textLength="14.0615" x="388.481" y="153.2861">No</text><rect fill="#F1F1F1" height="35.0938" rx="12.5" ry="12.5" style="stroke:#181818;stroke-width:0.5;" width="151.7363" x="117.0142" y="177.7031"/><text fill="#000000" font-family="sans-serif" font-size="12" lengthAdjust="spacing" textLength="131.7363" x="127.0142" y="200.1602">Load user role + isActive</text><polygon fill="#F1F1F1" points="155.1289,232.7969,230.6357,232.7969,242.6357,244.7969,230.6357,256.7969,155.1289,256.7969,143.1289,244.7969,155.1289,232.7969" style="stroke:#181818;stroke-width:0.5;"/><text fill="#000000" font-family="sans-serif" font-size="11" lengthAdjust="spacing" textLength="75.5068" x="155.1289" y="249.2979">isActive = true?</text><text fill="#000000" font-family="sans-serif" font-size="11" lengthAdjust="spacing" textLength="18.9546" x="124.1743" y="242.3799">Yes</text><text fill="#000000" font-family="sans-serif" font-size="11" lengthAdjust="spacing" textLength="14.0615" x="242.6357" y="242.3799">No</text><rect fill="#F1F1F1" height="35.0938" rx="12.5" ry="12.5" style="stroke:#181818;stroke-width:0.5;" width="128.0293" x="35.6973" y="266.7969"/><text fill="#000000" font-family="sans-serif" font-size="12" lengthAdjust="spacing" textLength="108.0293" x="45.6973" y="289.2539">Create session/JWT</text><rect fill="#F1F1F1" height="35.0938" rx="12.5" ry="12.5" style="stroke:#181818;stroke-width:0.5;" width="177.4238" x="11" y="321.8906"/><text fill="#000000" font-family="sans-serif" font-size="12" lengthAdjust="spacing" textLength="157.4238" x="21" y="344.3477">Redirect to dashboard by role</text><rect fill="#F1F1F1" height="35.0938" rx="12.5" ry="12.5" style="stroke:#181818;stroke-width:0.5;" width="155.2578" x="208.4238" y="266.7969"/><text fill="#000000" font-family="sans-serif" font-size="12" lengthAdjust="spacing" textLength="135.2578" x="218.4238" y="289.2539">Show "Account Disabled"</text><polygon fill="#F1F1F1" points="192.8823,362.9844,204.8823,374.9844,192.8823,386.9844,180.8823,374.9844,192.8823,362.9844" style="stroke:#181818;stroke-width:0.5;"/><rect fill="#F1F1F1" height="35.0938" rx="12.5" ry="12.5" style="stroke:#181818;stroke-width:0.5;" width="157.9238" x="393.6816" y="177.7031"/><text fill="#000000" font-family="sans-serif" font-size="12" lengthAdjust="spacing" textLength="137.9238" x="403.6816" y="200.1602">Show "Invalid credentials"</text><polygon fill="#F1F1F1" points="332.7629,392.9844,344.7629,404.9844,332.7629,416.9844,320.7629,404.9844,332.7629,392.9844" style="stroke:#181818;stroke-width:0.5;"/><ellipse cx="332.7629" cy="447.9844" fill="none" rx="11" ry="11" style="stroke:#222222;stroke-width:1;"/><ellipse cx="332.7629" cy="447.9844" fill="#222222" rx="6" ry="6" style="stroke:#222222;stroke-width:1;"/><line style="stroke:#181818;stroke-width:1;" x1="332.7629" x2="332.7629" y1="68.6094" y2="88.6094"/><polygon fill="#181818" points="328.7629,78.6094,332.7629,88.6094,336.7629,78.6094,332.7629,82.6094" style="stroke:#181818;stroke-width:1;"/><line style="stroke:#181818;stroke-width:1;" x1="99.7119" x2="99.7119" y1="301.8906" y2="321.8906"/><polygon fill="#181818" points="95.7119,311.8906,99.7119,321.8906,103.7119,311.8906,99.7119,315.8906" style="stroke:#181818;stroke-width:1;"/><line style="stroke:#181818;stroke-width:1;" x1="143.1289" x2="99.7119" y1="244.7969" y2="244.7969"/><line style="stroke:#181818;stroke-width:1;" x1="99.7119" x2="99.7119" y1="244.7969" y2="266.7969"/><polygon fill="#181818" points="95.7119,256.7969,99.7119,266.7969,103.7119,256.7969,99.7119,260.7969" style="stroke:#181818;stroke-width:1;"/><line style="stroke:#181818;stroke-width:1;" x1="242.6357" x2="286.0527" y1="244.7969" y2="244.7969"/><line style="stroke:#181818;stroke-width:1;" x1="286.0527" x2="286.0527" y1="244.7969" y2="266.7969"/><polygon fill="#181818" points="282.0527,256.7969,286.0527,266.7969,290.0527,256.7969,286.0527,260.7969" style="stroke:#181818;stroke-width:1;"/><line style="stroke:#181818;stroke-width:1;" x1="99.7119" x2="99.7119" y1="356.9844" y2="374.9844"/><line style="stroke:#181818;stroke-width:1;" x1="99.7119" x2="180.8823" y1="374.9844" y2="374.9844"/><polygon fill="#181818" points="170.8823,370.9844,180.8823,374.9844,170.8823,378.9844,174.8823,374.9844" style="stroke:#181818;stroke-width:1;"/><line style="stroke:#181818;stroke-width:1;" x1="286.0527" x2="286.0527" y1="301.8906" y2="374.9844"/><line style="stroke:#181818;stroke-width:1;" x1="286.0527" x2="204.8823" y1="374.9844" y2="374.9844"/><polygon fill="#181818" points="214.8823,370.9844,204.8823,374.9844,214.8823,378.9844,210.8823,374.9844" style="stroke:#181818;stroke-width:1;"/><line style="stroke:#181818;stroke-width:1;" x1="192.8823" x2="192.8823" y1="212.7969" y2="232.7969"/><polygon fill="#181818" points="188.8823,222.7969,192.8823,232.7969,196.8823,222.7969,192.8823,226.7969" style="stroke:#181818;stroke-width:1;"/><line style="stroke:#181818;stroke-width:1;" x1="277.0449" x2="192.8823" y1="155.7031" y2="155.7031"/><line style="stroke:#181818;stroke-width:1;" x1="192.8823" x2="192.8823" y1="155.7031" y2="177.7031"/><polygon fill="#181818" points="188.8823,167.7031,192.8823,177.7031,196.8823,167.7031,192.8823,171.7031" style="stroke:#181818;stroke-width:1;"/><line style="stroke:#181818;stroke-width:1;" x1="388.481" x2="472.6436" y1="155.7031" y2="155.7031"/><line style="stroke:#181818;stroke-width:1;" x1="472.6436" x2="472.6436" y1="155.7031" y2="177.7031"/><polygon fill="#181818" points="468.6436,167.7031,472.6436,177.7031,476.6436,167.7031,472.6436,171.7031" style="stroke:#181818;stroke-width:1;"/><line style="stroke:#181818;stroke-width:1;" x1="192.8823" x2="192.8823" y1="386.9844" y2="404.9844"/><line style="stroke:#181818;stroke-width:1;" x1="192.8823" x2="320.7629" y1="404.9844" y2="404.9844"/><polygon fill="#181818" points="310.7629,400.9844,320.7629,404.9844,310.7629,408.9844,314.7629,404.9844" style="stroke:#181818;stroke-width:1;"/><line style="stroke:#181818;stroke-width:1;" x1="472.6436" x2="472.6436" y1="212.7969" y2="404.9844"/><line style="stroke:#181818;stroke-width:1;" x1="472.6436" x2="344.7629" y1="404.9844" y2="404.9844"/><polygon fill="#181818" points="354.7629,400.9844,344.7629,404.9844,354.7629,408.9844,350.7629,404.9844" style="stroke:#181818;stroke-width:1;"/><line style="stroke:#181818;stroke-width:1;" x1="332.7629" x2="332.7629" y1="123.7031" y2="143.7031"/><polygon fill="#181818" points="328.7629,133.7031,332.7629,143.7031,336.7629,133.7031,332.7629,137.7031" style="stroke:#181818;stroke-width:1;"/><line style="stroke:#181818;stroke-width:1;" x1="332.7629" x2="332.7629" y1="416.9844" y2="436.9844"/><polygon fill="#181818" points="328.7629,426.9844,332.7629,436.9844,336.7629,426.9844,332.7629,430.9844" style="stroke:#181818;stroke-width:1;"/><?plantuml-src NOzDImCn48Rl-HKlFSWMaTwxY1HxKSI37uZ7sMJA3iIaP6PR-kzDjXN5u_0-yxmp9XOP6szo43lX1fl9HaucdanombNDFAiwfqR5tFfTkQ02N1JyHH9NUr8zvX9w9pjqzuL3swUeE52KSBT4CwBxP5qwOFsKAM1gcf9hzpL4vtxkQzeKFpDkOMNY_uAgg2La3As7rIDNZnzl_JbuuI25lS4o0kauP2e1msckQWn7PNJF-I9w7VCHY_fYdf9XAqf3vB2OoHHav_xo5_eXpN_1_tvQ5ywuMjv_0m00?></g></svg>