<?plantuml 1.2026.2beta3?><svg xmlns="http://www.w3.org/2000/svg" xmlns:xlink="http://www.w3.org/1999/xlink" contentStyleType="text/css" data-diagram-type="ACTIVITY" height="728px" preserveAspectRatio="none" style="width:514px;height:728px;background:#FFFFFF;" version="1.1" viewBox="0 0 514 728" width="514px" zoomAndPan="magnify"><title>Activity - Payments &amp; Receipt</title><defs/><g><g class="title" data-source-line="1"><text fill="#000000" font-family="sans-serif" font-size="14" font-weight="bold" lengthAdjust="spacing" textLength="197.6201" x="157.1421" y="34.5332">Activity - Payments &amp; Receipt</text></g><ellipse cx="223.2288" cy="58.6094" fill="#222222" rx="10" ry="10" style="stroke:#222222;stroke-width:1;"/><rect fill="#F1F1F1" height="35.0938" rx="12.5" ry="12.5" style="stroke:#181818;stroke-width:0.5;" width="272.1523" x="87.1526" y="88.6094"/><text fill="#000000" font-family="sans-serif" font-size="12" lengthAdjust="spacing" textLength="252.1523" x="97.1526" y="111.0664">Student chooses paymentType/method/amount</text><rect fill="#F1F1F1" height="35.0938" rx="12.5" ry="12.5" style="stroke:#181818;stroke-width:0.5;" width="152.0645" x="147.1965" y="143.7031"/><text fill="#000000" font-family="sans-serif" font-size="12" lengthAdjust="spacing" textLength="132.0645" x="157.1965" y="166.1602">Generate receiptNumber</text><rect fill="#F1F1F1" height="35.0938" rx="12.5" ry="12.5" style="stroke:#181818;stroke-width:0.5;" width="196.0977" x="125.1799" y="247.7148"/><text fill="#000000" font-family="sans-serif" font-size="12" lengthAdjust="spacing" textLength="176.0977" x="135.1799" y="270.1719">Generate another receiptNumber</text><polygon fill="#F1F1F1" points="148.9465,198.7969,297.511,198.7969,309.511,210.7969,297.511,222.7969,148.9465,222.7969,136.9465,210.7969,148.9465,198.7969" style="stroke:#181818;stroke-width:0.5;"/><text fill="#000000" font-family="sans-serif" font-size="11" lengthAdjust="spacing" textLength="18.9546" x="227.2288" y="234.2158">Yes</text><text fill="#000000" font-family="sans-serif" font-size="11" lengthAdjust="spacing" textLength="148.5645" x="148.9465" y="215.2979">receiptNumber already exists?</text><polygon fill="#F1F1F1" points="223.2288,302.8086,235.2288,314.8086,223.2288,326.8086,211.2288,314.8086,223.2288,302.8086" style="stroke:#181818;stroke-width:0.5;"/><rect fill="#F1F1F1" height="35.0938" rx="12.5" ry="12.5" style="stroke:#181818;stroke-width:0.5;" width="258.4648" x="93.9963" y="346.8086"/><text fill="#000000" font-family="sans-serif" font-size="12" lengthAdjust="spacing" textLength="238.4648" x="103.9963" y="369.2656">Create Payment (status=pending/completed)</text><polygon fill="#F1F1F1" points="157.5027,401.9023,288.9548,401.9023,300.9548,413.9023,288.9548,425.9023,157.5027,425.9023,145.5027,413.9023,157.5027,401.9023" style="stroke:#181818;stroke-width:0.5;"/><text fill="#000000" font-family="sans-serif" font-size="11" lengthAdjust="spacing" textLength="131.4521" x="157.5027" y="418.4033">Payment verified instantly?</text><text fill="#000000" font-family="sans-serif" font-size="11" lengthAdjust="spacing" textLength="18.9546" x="126.5481" y="411.4854">Yes</text><text fill="#000000" font-family="sans-serif" font-size="11" lengthAdjust="spacing" textLength="14.0615" x="300.9548" y="411.4854">No</text><rect fill="#F1F1F1" height="35.0938" rx="12.5" ry="12.5" style="stroke:#181818;stroke-width:0.5;" width="156.418" x="11" y="435.9023"/><text fill="#000000" font-family="sans-serif" font-size="12" lengthAdjust="spacing" textLength="136.418" x="21" y="458.3594">Update status=completed</text><rect fill="#F1F1F1" height="35.0938" rx="12.5" ry="12.5" style="stroke:#181818;stroke-width:0.5;" width="89.3691" x="44.5244" y="490.9961"/><text fill="#000000" font-family="sans-serif" font-size="12" lengthAdjust="spacing" textLength="69.3691" x="54.5244" y="513.4531">Show receipt</text><rect fill="#F1F1F1" height="35.0938" rx="12.5" ry="12.5" style="stroke:#181818;stroke-width:0.5;" width="156.0605" x="279.2183" y="435.9023"/><text fill="#000000" font-family="sans-serif" font-size="12" lengthAdjust="spacing" textLength="136.0605" x="289.2183" y="458.3594">Finance reviews payment</text><polygon fill="#F1F1F1" points="319.3367,490.9961,395.1604,490.9961,407.1604,502.9961,395.1604,514.9961,319.3367,514.9961,307.3367,502.9961,319.3367,490.9961" style="stroke:#181818;stroke-width:0.5;"/><text fill="#000000" font-family="sans-serif" font-size="11" lengthAdjust="spacing" textLength="75.8237" x="319.3367" y="507.4971">Valid payment?</text><text fill="#000000" font-family="sans-serif" font-size="11" lengthAdjust="spacing" textLength="18.9546" x="288.3821" y="500.5791">Yes</text><text fill="#000000" font-family="sans-serif" font-size="11" lengthAdjust="spacing" textLength="14.0615" x="407.1604" y="500.5791">No</text><rect fill="#F1F1F1" height="35.0938" rx="12.5" ry="12.5" style="stroke:#181818;stroke-width:0.5;" width="156.418" x="197.418" y="524.9961"/><text fill="#000000" font-family="sans-serif" font-size="12" lengthAdjust="spacing" textLength="136.418" x="207.418" y="547.4531">Update status=completed</text><rect fill="#F1F1F1" height="35.0938" rx="12.5" ry="12.5" style="stroke:#181818;stroke-width:0.5;" width="126.752" x="212.251" y="580.0898"/><text fill="#000000" font-family="sans-serif" font-size="12" lengthAdjust="spacing" textLength="106.752" x="222.251" y="602.5469">Add notes if needed</text><rect fill="#F1F1F1" height="35.0938" rx="12.5" ry="12.5" style="stroke:#181818;stroke-width:0.5;" width="129.7402" x="374" y="524.9961"/><text fill="#000000" font-family="sans-serif" font-size="12" lengthAdjust="spacing" textLength="109.7402" x="384" y="547.4531">Update status=failed</text><rect fill="#F1F1F1" height="35.0938" rx="12.5" ry="12.5" style="stroke:#181818;stroke-width:0.5;" width="130.0684" x="373.8359" y="580.0898"/><text fill="#000000" font-family="sans-serif" font-size="12" lengthAdjust="spacing" textLength="110.0684" x="383.8359" y="602.5469">Add rejection reason</text><polygon fill="#F1F1F1" points="357.2485,621.1836,369.2485,633.1836,357.2485,645.1836,345.2485,633.1836,357.2485,621.1836" style="stroke:#181818;stroke-width:0.5;"/><polygon fill="#F1F1F1" points="223.2288,651.1836,235.2288,663.1836,223.2288,675.1836,211.2288,663.1836,223.2288,651.1836" style="stroke:#181818;stroke-width:0.5;"/><ellipse cx="223.2288" cy="706.1836" fill="none" rx="11" ry="11" style="stroke:#222222;stroke-width:1;"/><ellipse cx="223.2288" cy="706.1836" fill="#222222" rx="6" ry="6" style="stroke:#222222;stroke-width:1;"/><line style="stroke:#181818;stroke-width:1;" x1="223.2288" x2="223.2288" y1="68.6094" y2="88.6094"/><polygon fill="#181818" points="219.2288,78.6094,223.2288,88.6094,227.2288,78.6094,223.2288,82.6094" style="stroke:#181818;stroke-width:1;"/><line style="stroke:#181818;stroke-width:1;" x1="223.2288" x2="223.2288" y1="123.7031" y2="143.7031"/><polygon fill="#181818" points="219.2288,133.7031,223.2288,143.7031,227.2288,133.7031,223.2288,137.7031" style="stroke:#181818;stroke-width:1;"/><line style="stroke:#181818;stroke-width:1;" x1="223.2288" x2="223.2288" y1="222.7969" y2="247.7148"/><polygon fill="#181818" points="219.2288,237.7148,223.2288,247.7148,227.2288,237.7148,223.2288,241.7148" style="stroke:#181818;stroke-width:1;"/><line style="stroke:#181818;stroke-width:1;" x1="309.511" x2="331.2776" y1="210.7969" y2="210.7969"/><polygon fill="#181818" points="327.2776,255.2617,331.2776,265.2617,335.2776,255.2617,331.2776,259.2617" style="stroke:#181818;stroke-width:1;"/><line style="stroke:#181818;stroke-width:1;" x1="331.2776" x2="331.2776" y1="210.7969" y2="314.8086"/><line style="stroke:#181818;stroke-width:1;" x1="331.2776" x2="235.2288" y1="314.8086" y2="314.8086"/><polygon fill="#181818" points="245.2288,310.8086,235.2288,314.8086,245.2288,318.8086,241.2288,314.8086" style="stroke:#181818;stroke-width:1;"/><line style="stroke:#181818;stroke-width:1;" x1="223.2288" x2="223.2288" y1="282.8086" y2="302.8086"/><polygon fill="#181818" points="219.2288,292.8086,223.2288,302.8086,227.2288,292.8086,223.2288,296.8086" style="stroke:#181818;stroke-width:1;"/><line style="stroke:#181818;stroke-width:1;" x1="223.2288" x2="223.2288" y1="178.7969" y2="198.7969"/><polygon fill="#181818" points="219.2288,188.7969,223.2288,198.7969,227.2288,188.7969,223.2288,192.7969" style="stroke:#181818;stroke-width:1;"/><line style="stroke:#181818;stroke-width:1;" x1="223.2288" x2="223.2288" y1="326.8086" y2="346.8086"/><polygon fill="#181818" points="219.2288,336.8086,223.2288,346.8086,227.2288,336.8086,223.2288,340.8086" style="stroke:#181818;stroke-width:1;"/><line style="stroke:#181818;stroke-width:1;" x1="89.209" x2="89.209" y1="470.9961" y2="490.9961"/><polygon fill="#181818" points="85.209,480.9961,89.209,490.9961,93.209,480.9961,89.209,484.9961" style="stroke:#181818;stroke-width:1;"/><line style="stroke:#181818;stroke-width:1;" x1="275.627" x2="275.627" y1="560.0898" y2="580.0898"/><polygon fill="#181818" points="271.627,570.0898,275.627,580.0898,279.627,570.0898,275.627,574.0898" style="stroke:#181818;stroke-width:1;"/><line style="stroke:#181818;stroke-width:1;" x1="438.8701" x2="438.8701" y1="560.0898" y2="580.0898"/><polygon fill="#181818" points="434.8701,570.0898,438.8701,580.0898,442.8701,570.0898,438.8701,574.0898" style="stroke:#181818;stroke-width:1;"/><line style="stroke:#181818;stroke-width:1;" x1="307.3367" x2="275.627" y1="502.9961" y2="502.9961"/><line style="stroke:#181818;stroke-width:1;" x1="275.627" x2="275.627" y1="502.9961" y2="524.9961"/><polygon fill="#181818" points="271.627,514.9961,275.627,524.9961,279.627,514.9961,275.627,518.9961" style="stroke:#181818;stroke-width:1;"/><line style="stroke:#181818;stroke-width:1;" x1="407.1604" x2="438.8701" y1="502.9961" y2="502.9961"/><line style="stroke:#181818;stroke-width:1;" x1="438.8701" x2="438.8701" y1="502.9961" y2="524.9961"/><polygon fill="#181818" points="434.8701,514.9961,438.8701,524.9961,442.8701,514.9961,438.8701,518.9961" style="stroke:#181818;stroke-width:1;"/><line style="stroke:#181818;stroke-width:1;" x1="275.627" x2="275.627" y1="615.1836" y2="633.1836"/><line style="stroke:#181818;stroke-width:1;" x1="275.627" x2="345.2485" y1="633.1836" y2="633.1836"/><polygon fill="#181818" points="335.2485,629.1836,345.2485,633.1836,335.2485,637.1836,339.2485,633.1836" style="stroke:#181818;stroke-width:1;"/><line style="stroke:#181818;stroke-width:1;" x1="438.8701" x2="438.8701" y1="615.1836" y2="633.1836"/><line style="stroke:#181818;stroke-width:1;" x1="438.8701" x2="369.2485" y1="633.1836" y2="633.1836"/><polygon fill="#181818" points="379.2485,629.1836,369.2485,633.1836,379.2485,637.1836,375.2485,633.1836" style="stroke:#181818;stroke-width:1;"/><line style="stroke:#181818;stroke-width:1;" x1="357.2485" x2="357.2485" y1="470.9961" y2="490.9961"/><polygon fill="#181818" points="353.2485,480.9961,357.2485,490.9961,361.2485,480.9961,357.2485,484.9961" style="stroke:#181818;stroke-width:1;"/><line style="stroke:#181818;stroke-width:1;" x1="145.5027" x2="89.209" y1="413.9023" y2="413.9023"/><line style="stroke:#181818;stroke-width:1;" x1="89.209" x2="89.209" y1="413.9023" y2="435.9023"/><polygon fill="#181818" points="85.209,425.9023,89.209,435.9023,93.209,425.9023,89.209,429.9023" style="stroke:#181818;stroke-width:1;"/><line style="stroke:#181818;stroke-width:1;" x1="300.9548" x2="357.2485" y1="413.9023" y2="413.9023"/><line style="stroke:#181818;stroke-width:1;" x1="357.2485" x2="357.2485" y1="413.9023" y2="435.9023"/><polygon fill="#181818" points="353.2485,425.9023,357.2485,435.9023,361.2485,425.9023,357.2485,429.9023" style="stroke:#181818;stroke-width:1;"/><line style="stroke:#181818;stroke-width:1;" x1="89.209" x2="89.209" y1="526.0898" y2="663.1836"/><line style="stroke:#181818;stroke-width:1;" x1="89.209" x2="211.2288" y1="663.1836" y2="663.1836"/><polygon fill="#181818" points="201.2288,659.1836,211.2288,663.1836,201.2288,667.1836,205.2288,663.1836" style="stroke:#181818;stroke-width:1;"/><line style="stroke:#181818;stroke-width:1;" x1="357.2485" x2="357.2485" y1="645.1836" y2="663.1836"/><line style="stroke:#181818;stroke-width:1;" x1="357.2485" x2="235.2288" y1="663.1836" y2="663.1836"/><polygon fill="#181818" points="245.2288,659.1836,235.2288,663.1836,245.2288,667.1836,241.2288,663.1836" style="stroke:#181818;stroke-width:1;"/><line style="stroke:#181818;stroke-width:1;" x1="223.2288" x2="223.2288" y1="381.9023" y2="401.9023"/><polygon fill="#181818" points="219.2288,391.9023,223.2288,401.9023,227.2288,391.9023,223.2288,395.9023" style="stroke:#181818;stroke-width:1;"/><line style="stroke:#181818;stroke-width:1;" x1="223.2288" x2="223.2288" y1="675.1836" y2="695.1836"/><polygon fill="#181818" points="219.2288,685.1836,223.2288,695.1836,227.2288,685.1836,223.2288,689.1836" style="stroke:#181818;stroke-width:1;"/><?plantuml-src VP51ImCn48Nl-HLpakr1UcyHAOBUYbWLFCRDMtSaEmd9REl-UxFjjjeAtaBUp9UF5sNre5Mjl6KTw9eUxT11DDCLFQ46HpKcgqrg5XljNOceRaF8o1GFeyz3nBo3ji7DRHTwqQLPF42Gh8BI0RBkktUafJ7SK7LsHzOdM3SGlZXhlfsHjX2gtf1dXkY7P2MK95qI8OuROnPtXLAc9d-gYhJs-IQEkNpCwz153uMRJHB7mIqIDmn7B6L5r0z_55wY6z4JyKHQZjcc3RkZKf7n6LIjmtxjdiLAFLQmPUnEVOrhey2hzUoEbvTl_lzgILVEKIcaV4DX2U0EoM-1Fup6iZy397oYV7sGSh8vo9wmxtDgDMk8tm00?></g></svg>