<?plantuml 1.2026.2beta3?><svg xmlns="http://www.w3.org/2000/svg" xmlns:xlink="http://www.w3.org/1999/xlink" contentStyleType="text/css" data-diagram-type="ACTIVITY" height="1193px" preserveAspectRatio="none" style="width:453px;height:1193px;background:#FFFFFF;" version="1.1" viewBox="0 0 453 1193" width="453px" zoomAndPan="magnify"><title>Activity - Admin Create Semester, Offerings &amp; Schedule</title><defs/><g><g class="title" data-source-line="1"><text fill="#000000" font-family="sans-serif" font-size="14" font-weight="bold" lengthAdjust="spacing" textLength="371.1025" x="39.5415" y="34.5332">Activity - Admin Create Semester, Offerings &amp; Schedule</text></g><ellipse cx="244.6821" cy="58.6094" fill="#222222" rx="10" ry="10" style="stroke:#222222;stroke-width:1;"/><rect fill="#F1F1F1" height="35.0938" rx="12.5" ry="12.5" style="stroke:#181818;stroke-width:0.5;" width="197.4219" x="145.9712" y="88.6094"/><text fill="#000000" font-family="sans-serif" font-size="12" lengthAdjust="spacing" textLength="177.4219" x="155.9712" y="111.0664">Admin creates/updates Semester</text><rect fill="#F1F1F1" height="35.0938" rx="12.5" ry="12.5" style="stroke:#181818;stroke-width:0.5;" width="219.7402" x="134.812" y="192.6211"/><text fill="#000000" font-family="sans-serif" font-size="12" lengthAdjust="spacing" textLength="199.7402" x="144.812" y="215.0781">Mark selected semester isActive=true</text><rect fill="#F1F1F1" height="35.0938" rx="12.5" ry="12.5" style="stroke:#181818;stroke-width:0.5;" width="201.0898" x="144.1372" y="262.7148"/><text fill="#000000" font-family="sans-serif" font-size="12" lengthAdjust="spacing" textLength="181.0898" x="154.1372" y="285.1719">Optional: set others isActive=false</text><polygon fill="#F1F1F1" points="193.3264,143.7031,296.0378,143.7031,308.0378,155.7031,296.0378,167.7031,193.3264,167.7031,181.3264,155.7031,193.3264,143.7031" style="stroke:#181818;stroke-width:0.5;"/><text fill="#000000" font-family="sans-serif" font-size="11" lengthAdjust="spacing" textLength="18.9546" x="248.6821" y="179.1221">Yes</text><text fill="#000000" font-family="sans-serif" font-size="11" lengthAdjust="spacing" textLength="102.7114" x="193.3264" y="160.2041">Set semester active?</text><polygon fill="#F1F1F1" points="244.6821,317.8086,256.6821,329.8086,244.6821,341.8086,232.6821,329.8086,244.6821,317.8086" style="stroke:#181818;stroke-width:0.5;"/><rect fill="#F1F1F1" height="35.0938" rx="12.5" ry="12.5" style="stroke:#181818;stroke-width:0.5;" width="181.4023" x="153.981" y="361.8086"/><text fill="#000000" font-family="sans-serif" font-size="12" lengthAdjust="spacing" textLength="161.4023" x="163.981" y="384.2656">Admin creates CourseOffering</text><rect fill="#F1F1F1" height="35.0938" rx="12.5" ry="12.5" style="stroke:#181818;stroke-width:0.5;" width="183.752" x="152.8062" y="416.9023"/><text fill="#000000" font-family="sans-serif" font-size="12" lengthAdjust="spacing" textLength="163.752" x="162.8062" y="439.3594">Choose courseId + semesterId</text><polygon fill="#F1F1F1" points="186.9053,471.9961,302.459,471.9961,314.459,483.9961,302.459,495.9961,186.9053,495.9961,174.9053,483.9961,186.9053,471.9961" style="stroke:#181818;stroke-width:0.5;"/><text fill="#000000" font-family="sans-serif" font-size="11" lengthAdjust="spacing" textLength="115.5537" x="186.9053" y="488.4971">Offering already exists?</text><text fill="#000000" font-family="sans-serif" font-size="11" lengthAdjust="spacing" textLength="18.9546" x="155.9507" y="481.5791">Yes</text><text fill="#000000" font-family="sans-serif" font-size="11" lengthAdjust="spacing" textLength="14.0615" x="314.459" y="481.5791">No</text><rect fill="#F1F1F1" height="35.0938" rx="12.5" ry="12.5" style="stroke:#181818;stroke-width:0.5;" width="241.7715" x="11" y="505.9961"/><text fill="#000000" font-family="sans-serif" font-size="12" lengthAdjust="spacing" textLength="221.7715" x="21" y="528.4531">Show error (unique courseId+semesterId)</text><ellipse cx="131.8857" cy="572.0898" fill="none" rx="11" ry="11" style="stroke:#222222;stroke-width:1;"/><ellipse cx="131.8857" cy="572.0898" fill="#222222" rx="6" ry="6" style="stroke:#222222;stroke-width:1;"/><rect fill="#F1F1F1" height="35.0938" rx="12.5" ry="12.5" style="stroke:#181818;stroke-width:0.5;" width="169.4141" x="272.7715" y="505.9961"/><text fill="#000000" font-family="sans-serif" font-size="12" lengthAdjust="spacing" textLength="149.4141" x="282.7715" y="528.4531">Optional: assign professorId</text><rect fill="#F1F1F1" height="35.0938" rx="12.5" ry="12.5" style="stroke:#181818;stroke-width:0.5;" width="111.3828" x="301.7871" y="561.0898"/><text fill="#000000" font-family="sans-serif" font-size="12" lengthAdjust="spacing" textLength="91.3828" x="311.7871" y="583.5469">Set maxStudents</text><rect fill="#F1F1F1" height="35.0938" rx="12.5" ry="12.5" style="stroke:#181818;stroke-width:0.5;" width="132.0547" x="291.4512" y="616.1836"/><text fill="#000000" font-family="sans-serif" font-size="12" lengthAdjust="spacing" textLength="112.0547" x="301.4512" y="638.6406">Save CourseOffering</text><rect fill="#F1F1F1" height="35.0938" rx="12.5" ry="12.5" style="stroke:#181818;stroke-width:0.5;" width="164.75" x="162.3071" y="671.2773"/><text fill="#000000" font-family="sans-serif" font-size="12" lengthAdjust="spacing" textLength="144.75" x="172.3071" y="693.7344">Admin adds ScheduleEntry</text><rect fill="#F1F1F1" height="35.0938" rx="12.5" ry="12.5" style="stroke:#181818;stroke-width:0.5;" width="371.791" x="58.7866" y="726.3711"/><text fill="#000000" font-family="sans-serif" font-size="12" lengthAdjust="spacing" textLength="351.791" x="68.7866" y="748.8281">Pick classroom + dayOfWeek + startTime/endTime + sessionType</text><rect fill="#F1F1F1" height="35.0938" rx="12.5" ry="12.5" style="stroke:#181818;stroke-width:0.5;" width="119.3691" x="184.9976" y="879.3008"/><text fill="#000000" font-family="sans-serif" font-size="12" lengthAdjust="spacing" textLength="99.3691" x="194.9976" y="901.7578">Show conflict error</text><ellipse cx="244.6821" cy="953.3477" fill="none" rx="11" ry="11" style="stroke:#222222;stroke-width:1;"/><ellipse cx="244.6821" cy="953.3477" fill="#222222" rx="6" ry="6" style="stroke:#222222;stroke-width:1;"/><polygon fill="#F1F1F1" points="200.6553,830.3828,288.709,830.3828,300.709,842.3828,288.709,854.3828,200.6553,854.3828,188.6553,842.3828,200.6553,830.3828" style="stroke:#181818;stroke-width:0.5;"/><text fill="#000000" font-family="sans-serif" font-size="11" lengthAdjust="spacing" textLength="18.9546" x="248.6821" y="865.8018">Yes</text><text fill="#000000" font-family="sans-serif" font-size="11" lengthAdjust="spacing" textLength="88.0537" x="200.6553" y="846.8838">Conflict detected?</text><polygon fill="#F1F1F1" points="164.2903,781.4648,325.074,781.4648,337.074,793.4648,325.074,805.4648,164.2903,805.4648,152.2903,793.4648,164.2903,781.4648" style="stroke:#181818;stroke-width:0.5;"/><text fill="#000000" font-family="sans-serif" font-size="11" lengthAdjust="spacing" textLength="18.9546" x="248.6821" y="816.8838">Yes</text><text fill="#000000" font-family="sans-serif" font-size="11" lengthAdjust="spacing" textLength="160.7837" x="164.2903" y="797.9658">Time conflict rules implemented?</text><polygon fill="#F1F1F1" points="244.6821,1006.3477,256.6821,1018.3477,244.6821,1030.3477,232.6821,1018.3477,244.6821,1006.3477" style="stroke:#181818;stroke-width:0.5;"/><rect fill="#F1F1F1" height="35.0938" rx="12.5" ry="12.5" style="stroke:#181818;stroke-width:0.5;" width="128.7324" x="180.3159" y="1050.3477"/><text fill="#000000" font-family="sans-serif" font-size="12" lengthAdjust="spacing" textLength="108.7324" x="190.3159" y="1072.8047">Save ScheduleEntry</text><rect fill="#F1F1F1" height="35.0938" rx="12.5" ry="12.5" style="stroke:#181818;stroke-width:0.5;" width="96.6992" x="196.3325" y="1105.4414"/><text fill="#000000" font-family="sans-serif" font-size="12" lengthAdjust="spacing" textLength="76.6992" x="206.3325" y="1127.8984">Show success</text><ellipse cx="244.6821" cy="1171.5352" fill="none" rx="11" ry="11" style="stroke:#222222;stroke-width:1;"/><ellipse cx="244.6821" cy="1171.5352" fill="#222222" rx="6" ry="6" style="stroke:#222222;stroke-width:1;"/><line style="stroke:#181818;stroke-width:1;" x1="244.6821" x2="244.6821" y1="68.6094" y2="88.6094"/><polygon fill="#181818" points="240.6821,78.6094,244.6821,88.6094,248.6821,78.6094,244.6821,82.6094" style="stroke:#181818;stroke-width:1;"/><line style="stroke:#181818;stroke-width:1;" x1="244.6821" x2="244.6821" y1="227.7148" y2="262.7148"/><polygon fill="#181818" points="240.6821,252.7148,244.6821,262.7148,248.6821,252.7148,244.6821,256.7148" style="stroke:#181818;stroke-width:1;"/><line style="stroke:#181818;stroke-width:1;" x1="244.6821" x2="244.6821" y1="167.7031" y2="192.6211"/><polygon fill="#181818" points="240.6821,182.6211,244.6821,192.6211,248.6821,182.6211,244.6821,186.6211" style="stroke:#181818;stroke-width:1;"/><line style="stroke:#181818;stroke-width:1;" x1="308.0378" x2="364.5522" y1="155.7031" y2="155.7031"/><polygon fill="#181818" points="360.5522,235.2148,364.5522,245.2148,368.5522,235.2148,364.5522,239.2148" style="stroke:#181818;stroke-width:1;"/><line style="stroke:#181818;stroke-width:1;" x1="364.5522" x2="364.5522" y1="155.7031" y2="329.8086"/><line style="stroke:#181818;stroke-width:1;" x1="364.5522" x2="256.6821" y1="329.8086" y2="329.8086"/><polygon fill="#181818" points="266.6821,325.8086,256.6821,329.8086,266.6821,333.8086,262.6821,329.8086" style="stroke:#181818;stroke-width:1;"/><line style="stroke:#181818;stroke-width:1;" x1="244.6821" x2="244.6821" y1="297.8086" y2="317.8086"/><polygon fill="#181818" points="240.6821,307.8086,244.6821,317.8086,248.6821,307.8086,244.6821,311.8086" style="stroke:#181818;stroke-width:1;"/><line style="stroke:#181818;stroke-width:1;" x1="244.6821" x2="244.6821" y1="123.7031" y2="143.7031"/><polygon fill="#181818" points="240.6821,133.7031,244.6821,143.7031,248.6821,133.7031,244.6821,137.7031" style="stroke:#181818;stroke-width:1;"/><line style="stroke:#181818;stroke-width:1;" x1="244.6821" x2="244.6821" y1="341.8086" y2="361.8086"/><polygon fill="#181818" points="240.6821,351.8086,244.6821,361.8086,248.6821,351.8086,244.6821,355.8086" style="stroke:#181818;stroke-width:1;"/><line style="stroke:#181818;stroke-width:1;" x1="244.6821" x2="244.6821" y1="396.9023" y2="416.9023"/><polygon fill="#181818" points="240.6821,406.9023,244.6821,416.9023,248.6821,406.9023,244.6821,410.9023" style="stroke:#181818;stroke-width:1;"/><line style="stroke:#181818;stroke-width:1;" x1="131.8857" x2="131.8857" y1="541.0898" y2="561.0898"/><polygon fill="#181818" points="127.8857,551.0898,131.8857,561.0898,135.8857,551.0898,131.8857,555.0898" style="stroke:#181818;stroke-width:1;"/><line style="stroke:#181818;stroke-width:1;" x1="357.4785" x2="357.4785" y1="541.0898" y2="561.0898"/><polygon fill="#181818" points="353.4785,551.0898,357.4785,561.0898,361.4785,551.0898,357.4785,555.0898" style="stroke:#181818;stroke-width:1;"/><line style="stroke:#181818;stroke-width:1;" x1="357.4785" x2="357.4785" y1="596.1836" y2="616.1836"/><polygon fill="#181818" points="353.4785,606.1836,357.4785,616.1836,361.4785,606.1836,357.4785,610.1836" style="stroke:#181818;stroke-width:1;"/><line style="stroke:#181818;stroke-width:1;" x1="174.9053" x2="131.8857" y1="483.9961" y2="483.9961"/><line style="stroke:#181818;stroke-width:1;" x1="131.8857" x2="131.8857" y1="483.9961" y2="505.9961"/><polygon fill="#181818" points="127.8857,495.9961,131.8857,505.9961,135.8857,495.9961,131.8857,499.9961" style="stroke:#181818;stroke-width:1;"/><line style="stroke:#181818;stroke-width:1;" x1="314.459" x2="357.4785" y1="483.9961" y2="483.9961"/><line style="stroke:#181818;stroke-width:1;" x1="357.4785" x2="357.4785" y1="483.9961" y2="505.9961"/><polygon fill="#181818" points="353.4785,495.9961,357.4785,505.9961,361.4785,495.9961,357.4785,499.9961" style="stroke:#181818;stroke-width:1;"/><line style="stroke:#181818;stroke-width:1;" x1="357.4785" x2="357.4785" y1="651.2773" y2="656.2773"/><line style="stroke:#181818;stroke-width:1;" x1="357.4785" x2="244.6821" y1="656.2773" y2="656.2773"/><line style="stroke:#181818;stroke-width:1;" x1="244.6821" x2="244.6821" y1="656.2773" y2="671.2773"/><polygon fill="#181818" points="240.6821,661.2773,244.6821,671.2773,248.6821,661.2773,244.6821,665.2773" style="stroke:#181818;stroke-width:1;"/><line style="stroke:#181818;stroke-width:1;" x1="244.6821" x2="244.6821" y1="451.9961" y2="471.9961"/><polygon fill="#181818" points="240.6821,461.9961,244.6821,471.9961,248.6821,461.9961,244.6821,465.9961" style="stroke:#181818;stroke-width:1;"/><line style="stroke:#181818;stroke-width:1;" x1="244.6821" x2="244.6821" y1="706.3711" y2="726.3711"/><polygon fill="#181818" points="240.6821,716.3711,244.6821,726.3711,248.6821,716.3711,244.6821,720.3711" style="stroke:#181818;stroke-width:1;"/><line style="stroke:#181818;stroke-width:1;" x1="244.6821" x2="244.6821" y1="914.3945" y2="942.3477"/><polygon fill="#181818" points="240.6821,932.3477,244.6821,942.3477,248.6821,932.3477,244.6821,936.3477" style="stroke:#181818;stroke-width:1;"/><line style="stroke:#181818;stroke-width:1;" x1="244.6821" x2="244.6821" y1="854.3828" y2="879.3008"/><polygon fill="#181818" points="240.6821,869.3008,244.6821,879.3008,248.6821,869.3008,244.6821,873.3008" style="stroke:#181818;stroke-width:1;"/><line style="stroke:#181818;stroke-width:1;" x1="300.709" x2="314.3667" y1="842.3828" y2="842.3828"/><polygon fill="#181818" points="310.3667,912.3477,314.3667,922.3477,318.3667,912.3477,314.3667,916.3477" style="stroke:#181818;stroke-width:1;"/><line style="stroke:#181818;stroke-width:1;" x1="314.3667" x2="314.3667" y1="842.3828" y2="986.3477"/><line style="stroke:#181818;stroke-width:1;" x1="314.3667" x2="244.6821" y1="986.3477" y2="986.3477"/><line style="stroke:#181818;stroke-width:1;" x1="244.6821" x2="244.6821" y1="986.3477" y2="1006.3477"/><polygon fill="#181818" points="240.6821,996.3477,244.6821,1006.3477,248.6821,996.3477,244.6821,1000.3477" style="stroke:#181818;stroke-width:1;"/><line style="stroke:#181818;stroke-width:1;" x1="244.6821" x2="244.6821" y1="805.4648" y2="830.3828"/><polygon fill="#181818" points="240.6821,820.3828,244.6821,830.3828,248.6821,820.3828,244.6821,824.3828" style="stroke:#181818;stroke-width:1;"/><line style="stroke:#181818;stroke-width:1;" x1="337.074" x2="349.074" y1="793.4648" y2="793.4648"/><polygon fill="#181818" points="345.074,906.3477,349.074,916.3477,353.074,906.3477,349.074,910.3477" style="stroke:#181818;stroke-width:1;"/><line style="stroke:#181818;stroke-width:1;" x1="349.074" x2="349.074" y1="793.4648" y2="1018.3477"/><line style="stroke:#181818;stroke-width:1;" x1="349.074" x2="256.6821" y1="1018.3477" y2="1018.3477"/><polygon fill="#181818" points="266.6821,1014.3477,256.6821,1018.3477,266.6821,1022.3477,262.6821,1018.3477" style="stroke:#181818;stroke-width:1;"/><line style="stroke:#181818;stroke-width:1;" x1="244.6821" x2="244.6821" y1="761.4648" y2="781.4648"/><polygon fill="#181818" points="240.6821,771.4648,244.6821,781.4648,248.6821,771.4648,244.6821,775.4648" style="stroke:#181818;stroke-width:1;"/><line style="stroke:#181818;stroke-width:1;" x1="244.6821" x2="244.6821" y1="1030.3477" y2="1050.3477"/><polygon fill="#181818" points="240.6821,1040.3477,244.6821,1050.3477,248.6821,1040.3477,244.6821,1044.3477" style="stroke:#181818;stroke-width:1;"/><line style="stroke:#181818;stroke-width:1;" x1="244.6821" x2="244.6821" y1="1085.4414" y2="1105.4414"/><polygon fill="#181818" points="240.6821,1095.4414,244.6821,1105.4414,248.6821,1095.4414,244.6821,1099.4414" style="stroke:#181818;stroke-width:1;"/><line style="stroke:#181818;stroke-width:1;" x1="244.6821" x2="244.6821" y1="1140.5352" y2="1160.5352"/><polygon fill="#181818" points="240.6821,1150.5352,244.6821,1160.5352,248.6821,1150.5352,244.6821,1154.5352" style="stroke:#181818;stroke-width:1;"/><?plantuml-src PP51Ry8m38Nl-HK-JI0sSQUQ9eHsuB0ngKZJZb7YZeWqwMANqNy_9nqWuD98xlFp-snsx16MXjt1yG1FiBIj2x1Ag1cXnXQ9CJt2fcamkV1Dy02rsQ7jFIf5h1EhnTXZIW_D-yxczznSATV0f4O6-g-0plFmPGgymm2JBwIf0bYywRGNaKV3Q2zgHoKVFdFgiSh2JSSk1kqN8cA8ufBe8ckq9z5XiAvHD-bW5Vj4UCAfr6ArYv4GJAclBSpEWzTsZ7uIW_PYOWV0eoEck_ZrBlu2fXGJJFhWVlgBw-pYESq4nB5JA35XyXwdrqYQo7q7w59ia2YM6DbTI5jzhBct69Z6cZxW7T4rjxQMpXTx3Pm6OVvmPW_6owGKOol8LW-RvXDnd_7pKRUknRauvRUiH4B5i1qw77TIwYQ6nZl3aCHR3j1sNZ237EzsDxbbTL9Rv7BXMz5fXMVRiikg_2aB0nZPnkz8VuEcHWlgZP78bSfzVm00?></g></svg>